nColumns=28
nRows=53
DataType=double
version=3
OpenSimVersion=4.1
endheader
time	ground_force_1_vx	ground_force_1_vy	ground_force_1_vz	ground_force_1_px	ground_force_1_py	ground_force_1_pz	ground_force_1_mx	ground_force_1_my	ground_force_1_mz	ground_force_2_vx	ground_force_2_vy	ground_force_2_vz	ground_force_2_px	ground_force_2_py	ground_force_2_pz	ground_force_2_mx	ground_force_2_my	ground_force_2_mz	ground_force_3_vx	ground_force_3_vy	ground_force_3_vz	ground_force_3_px	ground_force_3_py	ground_force_3_pz	ground_force_3_mx	ground_force_3_my	ground_force_3_mz
1.27	-132.043	183.797	-29.1518	-0.117269	0.006	-0.352202	0	0.645238	0	-131.094	192.353	19.3953	-0.132539	0.006	-0.839723	0	-0.06899	0	0	0	0	0	0	0	0	0	0
1.28	-291.405	417.087	-89.4258	-0.119824	0.006	-0.352063	0	1.69144	0	-257.304	398.226	55.6068	-0.138193	0.006	-0.841275	0	-0.225914	0	0	0	0	0	0	0	0	0	0
1.29	-221.51	555.194	-117.125	-0.152908	0.006	-0.358612	0	1.77923	0	-160.229	376.977	65.6408	-0.145788	0.006	-0.83937	0	-1.31753	0	0	0	0	0	0	0	0	0	0
1.3	-116.96	971.764	-131.613	-0.210774	0.006	-0.371122	0	-2.05536	0	-122.59	357.94	63.0534	-0.153134	0.006	-0.836297	0	-0.833867	0	0	0	0	0	0	0	0	0	0
1.31	-94.5201	1238.32	-148.493	-0.227104	0.006	-0.375558	0	-5.0971	0	-166.619	389.403	65.7311	-0.160438	0.006	-0.832931	0	0.174002	0	0	0	0	0	0	0	0	0	0
1.32	-247.797	970.44	-144.065	-0.207901	0.006	-0.374584	0	-5.40337	0	-200.177	513.428	75.0914	-0.186333	0.006	-0.828068	0	1.60357	0	0	0	0	0	0	0	0	0	0
1.33	-316.84	700.423	-127.975	-0.17972	0.006	-0.372268	0	-4.72087	0	-157.516	717.606	86.6597	-0.217395	0.006	-0.823827	0	2.19978	0	0	0	0	0	0	0	0	0	0
1.34	-253.284	605.447	-115.218	-0.172204	0.006	-0.371739	0	-4.86717	0	-101.614	754.248	95.169	-0.226439	0.006	-0.82242	0	1.56536	0	0	0	0	0	0	0	0	0	0
1.35	-190.855	597.261	-107.026	-0.176027	0.006	-0.372778	0	-5.39573	0	-117.755	618.174	84.8544	-0.213397	0.006	-0.822002	0	0.362631	0	0	0	0	0	0	0	0	0	0
1.36	-174.116	558.652	-92.6028	-0.172542	0.006	-0.374026	0	-5.61121	0	-142.184	501.641	67.6732	-0.194063	0.006	-0.821089	0	0.028521	0	0	0	0	0	0	0	0	0	0
1.37	-153.203	526.039	-75.2396	-0.171313	0.006	-0.376355	0	-6.06267	0	-149.6	469.807	57.0548	-0.184343	0.006	-0.819951	0	0.644622	0	0	0	0	0	0	0	0	0	0
1.38	-121.281	539.069	-68.0916	-0.17849	0.006	-0.378776	0	-6.20174	0	-144.494	481.875	58.4978	-0.183444	0.006	-0.819996	0	0.999217	0	0	0	0	0	0	0	0	0	0
1.39	-92.744	560.956	-65.1382	-0.18624	0.006	-0.380611	0	-5.94101	0	-131.533	492.322	67.4536	-0.183957	0.006	-0.82104	0	0.707437	0	0	0	0	0	0	0	0	0	0
1.4	-63.0613	578.635	-63.8118	-0.192135	0.006	-0.381738	0	-5.65727	0	-114.912	490.22	75.3912	-0.183022	0.006	-0.822176	0	0.349577	0	0	0	0	0	0	0	0	0	0
1.41	-34.2086	594.248	-68.2244	-0.194961	0.006	-0.381775	0	-5.232	0	-101.35	490.746	79.5312	-0.180872	0.006	-0.822822	0	0.282069	0	0	0	0	0	0	0	0	0	0
1.42	-26.1694	593.723	-72.5616	-0.191709	0.006	-0.381276	0	-4.77546	0	-91.5899	513.626	81.4344	-0.180074	0.006	-0.82315	0	0.663927	0	0	0	0	0	0	0	0	0	0
1.43	-37.3509	568.75	-71.6153	-0.182623	0.006	-0.380494	0	-4.51222	0	-79.059	542.627	83.5172	-0.179927	0.006	-0.823728	0	1.10973	0	0	0	0	0	0	0	0	0	0
1.44	-46.0419	534.552	-68.7747	-0.171028	0.006	-0.379297	0	-4.22722	0	-63.9822	555.185	86.3057	-0.178425	0.006	-0.82447	0	1.26465	0	0	0	0	0	0	0	0	0	0
1.45	-47.8296	502.407	-66.2597	-0.159439	0.006	-0.378009	0	-3.60799	0	-52.6722	547.015	87.5668	-0.174469	0.006	-0.825433	0	1.16032	0	0	0	0	0	0	0	0	0	0
1.46	-46.3307	474.134	-63.8708	-0.149202	0.006	-0.376954	0	-2.81923	0	-47.5162	520.05	84.2933	-0.168028	0.006	-0.826417	0	1.08935	0	0	0	0	0	0	0	0	0	0
1.47	-44.7459	453.104	-60.889	-0.141434	0.006	-0.376528	0	-2.20531	0	-46.0826	482.338	76.488	-0.160371	0.006	-0.826975	0	1.20826	0	0	0	0	0	0	0	0	0	0
1.48	-42.7963	440.283	-57.9627	-0.136554	0.006	-0.376694	0	-1.77039	0	-42.9314	444.308	67.6069	-0.154182	0.006	-0.827035	0	1.44204	0	0	0	0	0	0	0	0	0	0
1.49	-40.1026	437.587	-56.3326	-0.134024	0.006	-0.376784	0	-1.59194	0	-39.9837	409.952	61.9712	-0.149767	0.006	-0.827042	0	1.61595	0	0	0	0	0	0	0	0	0	0
1.5	-37.7369	449.942	-58.7579	-0.133882	0.006	-0.376299	0	-1.68753	0	-43.2265	386.099	61.9592	-0.146005	0.006	-0.827608	0	1.75781	0	0	0	0	0	0	0	0	0	0
1.51	-35.3618	476.25	-66.9421	-0.135906	0.006	-0.375298	0	-1.65931	0	-50.1212	379.233	64.2746	-0.143827	0.006	-0.828172	0	2.14718	0	0	0	0	0	0	0	0	0	0
1.52	-30.7141	507.598	-78.1764	-0.138934	0.006	-0.373981	0	-1.35039	0	-53.3712	388.781	65.715	-0.143798	0.006	-0.828362	0	2.94697	0	0	0	0	0	0	0	0	0	0
1.53	-25.3731	533.618	-87.405	-0.141063	0.006	-0.373124	0	-1.0708	0	-49.8213	411.575	65.4578	-0.145516	0.006	-0.828084	0	4.11544	0	0	0	0	0	0	0	0	0	0
1.54	-25.0851	548.012	-90.4445	-0.141182	0.006	-0.373164	0	-1.14589	0	-41.3928	446.998	65.4127	-0.148944	0.006	-0.827901	0	5.59321	0	0	0	0	0	0	0	0	0	0
1.55	-28.1035	557.444	-89.4293	-0.140197	0.006	-0.373596	0	-1.4887	0	-28.7624	499.798	68.5989	-0.153868	0.006	-0.827974	0	7.05394	0	0	0	0	0	0	0	0	0	0
1.56	-29.9892	569.234	-89.4424	-0.139226	0.006	-0.374081	0	-1.59801	0	-9.46757	567.099	74.7001	-0.159892	0.006	-0.8281	0	8.34303	0	0	0	0	0	0	0	0	0	0
1.57	-30.1916	582.334	-91.3221	-0.138073	0.006	-0.374506	0	-1.44463	0	11.8378	626.193	83.2425	-0.165195	0.006	-0.828274	0	8.94646	0	0	0	0	0	0	0	0	0	0
1.58	-31.0307	595.092	-93.9984	-0.136256	0.006	-0.374819	0	-1.27052	0	17.5036	648.869	92.2994	-0.165456	0.006	-0.828943	0	8.646	0	0	0	0	0	0	0	0	0	0
1.59	-35.0471	603.226	-96.6527	-0.133455	0.006	-0.375112	0	-1.05694	0	2.93487	636.047	94.6044	-0.160634	0.006	-0.829535	0	8.21739	0	0	0	0	0	0	0	0	0	0
1.6	-39.8104	604.491	-98.2591	-0.130256	0.006	-0.375384	0	-0.832042	0	-16.157	613.004	88.7109	-0.155139	0.006	-0.829209	0	8.28896	0	0	0	0	0	0	0	0	0	0
1.61	-43.9976	601.77	-98.7538	-0.127379	0.006	-0.375678	0	-0.655675	0	-29.5537	594.005	80.7491	-0.150995	0.006	-0.828291	0	8.41061	0	0	0	0	0	0	0	0	0	0
1.62	-47.798	597.24	-98.6437	-0.124948	0.006	-0.376052	0	-0.516328	0	-37.1683	581.397	75.2591	-0.147958	0.006	-0.827506	0	8.3178	0	0	0	0	0	0	0	0	0	0
1.63	-50.5762	591.797	-98.3895	-0.122914	0.006	-0.376433	0	-0.421767	0	-40.5937	574.844	72.5584	-0.145843	0.006	-0.826921	0	8.15458	0	0	0	0	0	0	0	0	0	0
1.64	-52.6345	586.67	-98.5305	-0.121278	0.006	-0.376531	0	-0.403797	0	-41.5915	573.176	71.8443	-0.144374	0.006	-0.82646	0	7.95147	0	0	0	0	0	0	0	0	0	0
1.65	-54.2612	581.824	-99.5473	-0.119999	0.006	-0.37659	0	-0.417487	0	-40.9188	574.418	72.0759	-0.143312	0.006	-0.826148	0	7.7845	0	0	0	0	0	0	0	0	0	0
1.66	-55.1069	577.844	-101.545	-0.118916	0.006	-0.37646	0	-0.386197	0	-39.0547	577.007	73.1018	-0.142745	0.006	-0.826169	0	7.58181	0	0	0	0	0	0	0	0	0	0
1.67	-55.1709	574.893	-104.193	-0.118003	0.006	-0.376067	0	-0.347907	0	-36.4116	579.893	75.3178	-0.14233	0.006	-0.826546	0	7.26189	0	0	0	0	0	0	0	0	0	0
1.68	-54.1422	572.147	-107.08	-0.117365	0.006	-0.375436	0	-0.370385	0	-34.4961	581.548	78.2143	-0.141775	0.006	-0.827127	0	6.82612	0	0	0	0	0	0	0	0	0	0
1.69	-52.4164	569.862	-109.545	-0.116885	0.006	-0.374921	0	-0.45089	0	-33.5208	580.475	80.2814	-0.141205	0.006	-0.827669	0	6.4723	0	0	0	0	0	0	0	0	0	0
1.7	-50.9014	569.729	-110.858	-0.116493	0.006	-0.374498	0	-0.621764	0	-32.1487	577.245	80.4296	-0.140619	0.006	-0.827965	0	6.34692	0	0	0	0	0	0	0	0	0	0
1.71	-48.4572	572.47	-111.051	-0.116252	0.006	-0.374002	0	-0.936631	0	-29.9032	574.129	79.3262	-0.13999	0.006	-0.828149	0	6.39944	0	0	0	0	0	0	0	0	0	0
1.72	-44.6195	576.751	-111.45	-0.116038	0.006	-0.373401	0	-1.28347	0	-26.7835	572.668	77.7661	-0.139303	0.006	-0.828372	0	6.52462	0	0	0	0	0	0	0	0	0	0
1.73	-40.8516	580.492	-112.38	-0.115716	0.006	-0.372706	0	-1.63218	0	-25.182	572.18	75.8951	-0.138431	0.006	-0.828596	0	6.59222	0	0	0	0	0	0	0	0	0	0
1.74	-40.4129	583.296	-112.91	-0.115079	0.006	-0.372016	0	-1.9845	0	-25.8369	571.462	73.9543	-0.137336	0.006	-0.828855	0	6.50741	0	0	0	0	0	0	0	0	0	0
1.75	-43.667	584.208	-111.903	-0.114152	0.006	-0.371372	0	-2.35379	0	-28.5503	569.81	71.9502	-0.136017	0.006	-0.829173	0	6.30141	0	0	0	0	0	0	0	0	0	0
1.76	-50.7862	582.691	-109.914	-0.112796	0.006	-0.370815	0	-2.61795	0	-34.0663	567.734	69.7887	-0.134488	0.006	-0.829411	0	5.9781	0	0	0	0	0	0	0	0	0	0
1.77	-60.8934	578.432	-107.669	-0.11122	0.006	-0.370405	0	-2.64562	0	-42.2167	564.974	67.2864	-0.132909	0.006	-0.82959	0	5.61323	0	0	0	0	0	0	0	0	0	0
1.78	-71.4922	570.09	-105.668	-0.109769	0.006	-0.369824	0	-2.40905	0	-51.8008	560.074	63.8469	-0.131371	0.006	-0.829695	0	5.26318	0	0	0	0	0	0	0	0	0	0
1.79	-79.4317	555.503	-103.444	-0.108544	0.006	-0.368983	0	-1.96037	0	-62.2791	551.521	59.5035	-0.129851	0.006	-0.829889	0	4.87539	0	0	0	0	0	0	0	0	0	0
